<?xml version="1.0" encoding="UTF-8"?>
<svg id="Layer_2" data-name="Layer 2" xmlns="http://www.w3.org/2000/svg" xmlns:xlink="http://www.w3.org/1999/xlink" viewBox="0 0 563.6 436.63">
  <defs>
    <style>
      .cls-1 {
        fill: url(#linear-gradient-4);
      }

      .cls-1, .cls-2, .cls-3, .cls-4 {
        fill-rule: evenodd;
      }

      .cls-2 {
        fill: url(#linear-gradient-2);
      }

      .cls-3 {
        fill: url(#linear-gradient);
      }

      .cls-4 {
        fill: url(#linear-gradient-3);
      }
    </style>
    <linearGradient id="linear-gradient" x1="51.29" y1="412.8" x2="231.6" y2="26.13" gradientUnits="userSpaceOnUse">
      <stop offset="0" stop-color="#fffcd8"/>
      <stop offset=".04" stop-color="#ffee91"/>
      <stop offset=".19" stop-color="#9a5127"/>
      <stop offset=".33" stop-color="#ffee91"/>
      <stop offset=".36" stop-color="#fffcd8"/>
      <stop offset=".4" stop-color="#ffee91"/>
      <stop offset=".55" stop-color="#9a5127"/>
      <stop offset=".77" stop-color="#ffee91"/>
      <stop offset=".82" stop-color="#fffcd8"/>
      <stop offset=".85" stop-color="#ffee91"/>
      <stop offset="1" stop-color="#9a5127"/>
    </linearGradient>
    <linearGradient id="linear-gradient-2" x1="2.87" y1="356.24" x2="276.09" y2="83.02" gradientUnits="userSpaceOnUse">
      <stop offset="0" stop-color="#9b5d26"/>
      <stop offset=".3" stop-color="#e0a649"/>
      <stop offset=".5" stop-color="#ffd984"/>
      <stop offset=".7" stop-color="#ffeebe"/>
      <stop offset=".85" stop-color="#ffcd7b"/>
      <stop offset="1" stop-color="#e1a240"/>
    </linearGradient>
    <linearGradient id="linear-gradient-3" x1="338.93" y1="408.11" x2="530.89" y2="-3.54" xlink:href="#linear-gradient"/>
    <linearGradient id="linear-gradient-4" x1="291.51" y1="343.54" x2="584.5" y2="50.54" xlink:href="#linear-gradient-2"/>
  </defs>
  <g id="Layer_1-2" data-name="Layer 1">
    <g>
      <g>
        <path class="cls-3" d="m278.96,302.61v6.07c0,37.19-13.54,67.82-40.63,91.87-27.09,24.05-60.23,36.08-99.45,36.08s-72.17-11.82-98.85-35.46C13.34,377.51,0,347.08,0,309.88v-6.05c0-40.03,16.18-72.57,48.52-97.65-26.28-22.23-39.41-50.33-39.41-84.3v-6.06c0-33.56,12.53-61.26,37.59-83.09C71.76,10.91,102.89,0,140.09,0s68.12,10.71,92.78,32.15c24.66,21.42,36.99,48.92,36.99,82.47v6.07c0,33.97-13.34,62.06-40.02,84.3,32.75,25.06,49.12,57.6,49.12,97.63h0Zm-178.9-14.56v18.19c0,14.15,3.54,25.28,10.62,33.36,7.08,8.08,16.68,12.12,28.8,12.12s21.73-4.04,28.81-12.12c7.08-8.08,10.62-19.21,10.62-33.36v-18.19c0-14.15-3.54-25.27-10.62-33.35-7.08-8.09-16.67-12.14-28.81-12.14s-21.72,4.05-28.8,12.14c-7.08,8.08-10.62,19.2-10.62,33.35h0Zm9.1-166.76v12.12c0,11.73,2.73,20.72,8.19,26.99,5.45,6.27,12.83,9.4,22.13,9.4s16.69-3.13,22.14-9.4c5.46-6.26,8.18-15.26,8.18-26.99v-12.12c0-11.73-2.73-20.72-8.18-26.99-5.46-6.26-12.83-9.4-22.14-9.4s-16.68,3.14-22.13,9.4c-5.46,6.27-8.19,15.27-8.19,26.99Z"/>
        <path class="cls-2" d="m138.88,430.91c-37.6,0-69.58-11.45-95.06-34.04-25.28-22.41-38.1-51.67-38.1-86.99v-6.05c0-38.52,15.14-68.97,46.29-93.12l5.59-4.33-5.4-4.56c-25.16-21.28-37.39-47.42-37.39-79.93v-6.06c0-32.12,11.66-57.88,35.64-78.77,23.87-20.79,54.03-31.34,89.63-31.34s65.55,10.34,89.03,30.74c23.57,20.47,35.02,46.04,35.02,78.15v6.07c0,32.47-12.42,58.61-37.96,79.9l-5.5,4.59,5.69,4.35c31.55,24.14,46.88,54.59,46.88,93.09v6.07c0,35.32-13.02,64.78-38.71,87.59-25.89,22.98-58.07,34.64-95.65,34.64Zm.6-194.06c-13.79,0-24.92,4.74-33.1,14.09-7.98,9.12-12.03,21.61-12.03,37.12v18.19c0,15.51,4.05,28,12.03,37.13,8.18,9.35,19.32,14.08,33.1,14.08s24.94-4.74,33.12-14.08c7.98-9.12,12.03-21.61,12.03-37.13v-18.19c0-15.51-4.05-28-12.03-37.12-8.18-9.35-19.32-14.08-33.12-14.08Zm0-157.67c-10.98,0-19.88,3.82-26.44,11.36-6.37,7.31-9.6,17.66-9.6,30.75v12.12c0,13.09,3.23,23.44,9.6,30.75,6.56,7.54,15.46,11.36,26.44,11.36s19.89-3.82,26.46-11.36c6.36-7.31,9.6-17.65,9.6-30.75v-12.12c0-13.1-3.23-23.44-9.6-30.75-6.56-7.54-15.46-11.36-26.45-11.36Z"/>
      </g>
      <g>
        <path class="cls-4" d="m308.71,251.67L333.43,6.06h218.04v87.94h-141.41l-6.54,64.98c16.02-13,34.2-19.5,54.56-19.5,30.73,0,56,10.21,75.8,30.63,19.82,20.42,29.72,47.4,29.72,80.96v54.58c0,39.62-12.22,71.36-36.69,95.21-24.46,23.86-55.89,35.78-94.3,35.78s-67.61-11.72-91.27-35.17c-23.65-23.45-35.47-54.98-35.47-94.6v-9.7h97.02v18.7c0,16.87,13.82,30.31,30.32,30.31s30.32-13.62,30.32-30.31v-61.66c0-16.68-13.64-30.32-30.31-30.32-15.7,0-28.92,12.14-30.22,27.79h-94.28Z"/>
        <path class="cls-1" d="m432.61,430.91c-35.46,0-64.81-11.27-87.24-33.51-22.41-22.23-33.78-52.69-33.78-90.54v-3.99h85.58v12.98c0,19.87,16.17,36.04,36.04,36.04s36.05-16.17,36.05-36.04v-61.66c0-19.87-16.17-36.04-36.04-36.04-16.81,0-31.3,11.84-35.09,27.79h-83.1l23.57-234.15h207.14v76.49h-140.86l-8.44,83.81,10.68-8.67c14.89-12.09,32.04-18.22,50.95-18.22,28.98,0,53.1,9.72,71.69,28.89,18.65,19.22,28.11,45.12,28.11,76.97v54.58c0,37.84-11.76,68.49-34.96,91.12-23.23,22.66-53.62,34.15-90.31,34.15Z"/>
      </g>
    </g>
  </g>
</svg>